<svg width="80" height="80" fill="none" xmlns="http://www.w3.org/2000/svg"><path d="M58.114 78.903c3.898-.581 9.5-4.123 9.96-4.376 10.674-5.871 8.2-24.56 8.126-35.039-.077-10.914 4.435-19.844-3.335-28.37-6.703-7.354-14.347-8.268-23.862-9.282C38.17.684 23.448.517 14.206 7.044 6.262 12.654 3.597 22.887 2.98 32.093c-.366 5.47 1.698 29.254 3.695 33.976C11.528 77.552 26.259 78.36 37.31 79.612c6.866.778 13.979.306 20.803-.71z" fill="#6B84FF"/><path d="M38.837 42.288c-.762-1.769-1.98-3.14-3.443-4.188 3.59-5.453 5.084-12.528-.86-16.934-5.096-3.775-16.28-4.277-22.24-1.322-1.094.173-2.154.815-2.695 1.914-.508.673-.617 1.417-.438 2.116-.483 4.675-.32 9.367.03 14.053.32 4.283.486 8.676 1.034 12.934.486 3.794.738 6.889 4.607 8.1 3.615 1.132 8.735-.227 12.321-.793 3.84-.605 7.566-1.136 10.466-3.997 3.241-3.195 2.867-8.06 1.218-11.883zM18.344 35.43c-.221-2.994-.382-5.979-.179-9.005 1.14-.488 7.633-.052 9.354.718 1.371.616 3.09 1.798 3.307 3.443.21 1.597-.667 2.944-1.713 4.063-2.447 1.148-7.558.703-10.769.78zm13.132 15.215c-2.224 1.16-5.262 1.044-7.685 1.545-1.11.23-4.953 1.445-5.356.537-.542-1.218.181-10.185.132-11.004 5.467-.467 11.026-2.105 14.502 2.622 1.671 2.273.973 4.959-1.593 6.3zM60.71 21.202c-3.713.083-7.655-.518-9.475-.439-3.985.176-1.827 5.185-1.023 5.378 1.573.378 8.87 1.317 10.499 1.28 3.986-.088 3.995-6.307 0-6.22zm-2.705 9.522c-5.903-1.03-11.482 1.965-13.646 7.568C42.425 43.3 42.616 52.3 45.87 56.154c2.153 2.548 7.678 4.823 10.98 4.529 13.693-1.221 13.902-8.846 14.725-10.111.769-1.181-6.848-2.5-8.471-1.82-1.8.752-3.357 2.593-5.415 2.662-2.11.07-4.017-1.293-5.376-2.768-.58-.632-1.075-2.938-1.463-3.755 4.574.381 18.402-.903 18.46-2.439.248-6.475-5.335-10.686-11.305-11.728zm-7.653 9.42c-.027-.006-.053-.008-.08-.012 1.755-4.966 9.701-4.05 12.138.054-4.037-.002-8.094.785-12.058-.041z" fill="#fff"/><path d="M79.963 20.169c-.036-2.044-.097-4.09-.217-6.143-.014-.243-.029-.522-.057-.807-.027-.28-.065-.559-.11-.835a13.599 13.599 0 00-.379-1.632 15.106 15.106 0 00-5.715-7.935C71.675 1.535 69.529.683 67.296.43 66.709.364 66.216.345 65.7.316L64.168.247l-3.05-.099c-2.03-.054-4.06-.09-6.09-.118-2.03-.026-4.06-.04-6.097-.025-1.01.006-2.055.033-3.049.06-1 .025-2.008.023-3.016.061l-12.132.28c-4.05.089-8.099.118-12.163.107L15.513.478l-1.557.006c-.578.013-1.151.075-1.717.17-1.134.188-2.222.561-3.251 1.037C7.96 2.173 6.979 2.755 6.1 3.47a15.426 15.426 0 00-4.252 5.29 13.695 13.695 0 00-1.116 3.285c-.114.575-.19 1.142-.23 1.742-.037.593-.035 1.083-.052 1.588-.05 2.021-.122 4.058-.155 6.111a302.78 302.78 0 00-.024 6.024c-.062.502-.093.929-.12 1.37l-.07 1.413c-.034.934-.057 1.859-.075 2.782a267.39 267.39 0 00.017 5.523c.076 3.676.422 7.34.519 11.007.043.916.055 1.833.058 2.75.003.917.031 1.833.009 2.751L.55 60.613l.037 2.755c.004.46.03.919.046 1.38l.03.7c.013.25.032.503.054.754.182 2.01.757 4.035 1.78 5.836a13.298 13.298 0 004.174 4.485 14.623 14.623 0 007.12 2.424c.499.033.946.042 1.4.063l2.74.104 5.487.162c3.657.1 7.316.098 10.972.16l2.743.036 2.742.084c1.829.057 3.661.072 5.489.094l12.12-.078c2.029-.013 4.061-.02 6.102-.075 1.031-.03 2.02-.054 3.102-.124a12.338 12.338 0 003.324-.748c2.115-.79 3.985-2.08 5.498-3.685 1.513-1.604 2.717-3.519 3.392-5.662a12.16 12.16 0 00.391-1.643c.044-.284.08-.551.106-.858l.025-.408.017-.387a84.72 84.72 0 00.066-3.087c.019-2.051-.05-4.09-.046-6.123.001-2.034-.032-4.055.034-6.086l.212-6.088.11-3.046.06-3.05c.037-2.033.07-4.067.082-6.102.019-4.07.077-8.146.003-12.231zm-2.364 12.205c-.581 8.105-.788 16.234-.752 24.396.002 2.03.007 4.053-.036 6.057a81.55 81.55 0 01-.114 2.988l-.021.37-.028.34a9.018 9.018 0 01-.402 1.865c-1.103 3.319-3.944 6.227-7.239 7.454a9.385 9.385 0 01-2.53.565 99.56 99.56 0 01-2.955.115c-2.002.052-4.015.067-6.034.072-4.037.01-8.094-.01-12.16.055l-5.454-.015c-.909-.01-1.818.013-2.727.014l-1.364.061-1.366.117c-.91.09-1.82.101-2.73.063l-2.727-.08-5.452-.21-5.449-.274-2.725-.16c-.456-.03-.92-.052-1.332-.087a10.916 10.916 0 01-1.203-.174c-3.208-.621-6.103-2.603-7.579-5.404-.75-1.391-1.167-2.96-1.278-4.583a16.004 16.004 0 01-.03-.61l-.015-.674-.028-1.366-.062-2.738-.171-10.972-.064-5.486-.087-5.481-.161-5.47c-.026-.91-.047-1.818-.056-2.72-.005-.887-.012-1.832.052-2.6l.013-.15v-.044c-.077-2.027-.17-4.053-.085-6.072.103-2.016.218-4.041.364-6.078.04-.51.067-1.033.12-1.466a10.836 10.836 0 011.2-3.754c.851-1.538 1.982-2.94 3.38-4.021C9.7 5.134 11.273 4.3 12.92 3.844a8.86 8.86 0 011.246-.248l1.467-.144 3.005-.257c4.022-.268 8.067-.297 12.11-.376 8.071-.046 16.236-.285 24.26.315 2.014.062 4.03.056 6.043.084l3.014.058 1.497.042c.49.015 1.013.028 1.409.064 3.47.283 6.742 2.527 8.613 5.656.472.779.855 1.61 1.138 2.47a10.763 10.763 0 01.447 1.972c.029.217.046.442.068.706.166 2 .277 4.015.363 6.035.175 4.04.193 8.098 0 12.153z" fill="#000"/><path d="M38.28 39.493a9.616 9.616 0 00-1.381-.803 11.054 11.054 0 00-.569-.273c.331-.159.663-.323.995-.507.303-.172.603-.362.893-.58.145-.106.277-.237.419-.373.11-.105.248-.26.367-.388.244-.272.437-.586.62-.9.183-.314.338-.646.454-.988.256-.678.38-1.383.487-2.074.052-.349.083-.691.11-1.043.032-.383.053-.646.057-1.034a14.12 14.12 0 00-.113-2.103 10.061 10.061 0 00-.513-2.096 8.552 8.552 0 00-.45-.999 7.898 7.898 0 00-.277-.492c-.104-.18-.18-.286-.271-.432a.106.106 0 00-.005-.008l-.015-.02a9.671 9.671 0 00-3.04-2.707C34.873 21 33.605 20.57 32.337 20.3c-1.267-.267-2.556-.378-3.799-.401-1.262-.007-2.427.012-3.645-.013-1.206-.015-2.412-.149-3.618-.173-1.206-.04-2.411-.004-3.617-.01-2.412.081-4.824.14-7.235.426a.86.86 0 00-.909.796l-.009.125c-.228 3.129-.31 6.258-.347 9.387-.125 3.129.36 6.258.256 9.387-.003 1.565-.003 3.13-.058 4.695-.038 1.564-.074 3.129-.159 4.693a98.372 98.372 0 00-.183 4.694l.07 4.694v.065c0 .772.612 1.383 1.38 1.365 4.031-.093 8.04-.27 12.069-.393a98.91 98.91 0 013.012-.067c1.003-.017 2.006-.011 3.056-.069a27.261 27.261 0 003.11-.346c1.003-.168 2.092-.41 3.095-.832 2.038-.832 3.766-2.289 4.985-4.131.273-.425.56-.89.804-1.38.245-.485.453-.99.626-1.505a12.1 12.1 0 00.596-3.18c.11-2.118-.228-4.338-1.34-6.258a7.232 7.232 0 00-2.196-2.377zm2.195 8.551c-.066.962-.248 1.91-.563 2.81a6.6 6.6 0 01-.607 1.29c-.23.413-.538.776-.85 1.174-.285.343-.63.68-.955 1-.318.334-.68.614-1.029.908l-.268.212c-.096.072-.211.163-.292.217a8.9 8.9 0 01-.56.367c-.39.23-.797.436-1.222.606-.854.354-1.732.577-2.715.752-.942.17-1.918.295-2.892.357-.967.066-1.977.071-2.987.1l-3.023.071c-3.829.1-7.658.157-11.487.106l.207-8.8c.043-1.565.062-3.13.078-4.694.027-1.566.02-3.13.014-4.695.056-3.129-.284-6.258-.2-9.387.05-2.853.04-5.707.152-8.56 2.127-.154 4.254-.246 6.38-.338l1.81-.023c.602-.009 1.205-.022 1.808.01 1.206.03 2.412.19 3.618.236 1.196.057 2.431.074 3.597.114 1.177.055 2.319.193 3.423.459 1.1.266 2.149.663 3.069 1.225a7.452 7.452 0 012.278 2.142c.67.968 1.058 2 1.283 3.13.252 1.112.238 2.352.162 3.498-.083 1.157-.341 2.297-.959 3.28-.085.126-.149.23-.253.366a6.12 6.12 0 01-.9.947c-.468.38-.987.72-1.53 1.026l-.018.01a.561.561 0 00.08 1.014c.898.336 1.747.787 2.472 1.381.732.597 1.3 1.328 1.767 2.157.924 1.62 1.245 3.604 1.112 5.532zM71.02 41.52a18.207 18.207 0 00-1.106-4.412c-.275-.715-.477-1.456-.812-2.202-.29-.696-.766-1.368-1.281-1.964-1.026-1.215-2.422-2.155-3.85-2.762l-.026-.01c-1.395-.591-2.893-.823-4.348-.966-1.465-.145-2.915-.1-4.383.01-.732.066-1.465.163-2.21.269-.746.104-1.498.266-2.225.525-.728.26-1.399.658-2.035 1.093-.635.44-1.233.93-1.783 1.47-1.104 1.094-1.979 2.425-2.587 3.832-.606 1.411-.978 2.888-1.201 4.36-.206 1.48-.286 2.945-.302 4.42-.01 1.475.077 2.987.452 4.477.362 1.49.998 2.957 1.92 4.262.468.653.987 1.248 1.603 1.798.592.527 1.19.961 1.832 1.387 1.281.831 2.688 1.499 4.166 1.912 1.476.416 3.007.602 4.51.598 1.494-.006 2.994-.154 4.476-.527.739-.185 1.47-.428 2.178-.732a11.32 11.32 0 002.01-1.151c.62-.465 1.189-.99 1.707-1.55.28-.301.485-.567.734-.854.237-.289.475-.578.703-.88.912-1.2 1.73-2.54 2.224-4.206l.001-.005a1.089 1.089 0 00-.93-1.331l-.278-.033a23.228 23.228 0 00-1.788-.123c-.596-.02-1.192-.02-1.787-.023-.597.02-1.192.076-1.788.113-.596.032-1.192.202-1.788.202h-.002c-.333 0-.675.053-.879.349l-.146.184c-.348.506-.735.975-1.084 1.271l-.102.08-.051.04c.014-.012-.019.012-.026.017-.052.04-.102.083-.157.119a3.264 3.264 0 01-.334.211 4.13 4.13 0 01-.736.346c-.528.188-1.11.284-1.748.305a7.344 7.344 0 01-1.824-.15 5.281 5.281 0 01-1.232-.435 4.459 4.459 0 01-.398-.228 4.218 4.218 0 01-1.244-1.158c-.518-.727-.846-1.648-1.016-2.64l1.424-.06 2.44-.06c1.625-.038 3.25-.034 4.876-.054 1.626-.006 3.252.13 4.877.194 1.627.078 3.252.114 4.878.114h.038c.474 0 .943-.508.943-.984v-.001c0-.742-.162-1.482-.243-2.224-.047-.743-.161-1.487-.261-2.233zm-5.352 3.765l-4.878-.07-4.877.055c-1.626.01-3.252.042-4.877.086h-.043l-.06.003a.627.627 0 00-.564.629v.006c0 1.49.318 3.079 1.19 4.467a6.125 6.125 0 001.707 1.75c.31.221.683.434 1.05.604.367.172.752.308 1.137.415a9.351 9.351 0 002.343.318 7.958 7.958 0 002.39-.302 6.514 6.514 0 002.23-1.177c.524-.435.917-.91 1.265-1.403a26.97 26.97 0 011.135-.08c.596-.033 1.191-.023 1.788-.037.595.014 1.191.026 1.787.059.164.01.328.026.492.038-.185.769-.593 1.53-1.115 2.195a7.71 7.71 0 01-.651.74 8.653 8.653 0 01-.729.669c-.498.411-1.029.772-1.586 1.077-1.103.618-2.26 1.155-3.52 1.471-1.252.324-2.577.465-3.905.477-2.64.03-5.236-.655-7.49-2.045a13.608 13.608 0 01-1.608-1.154 8.604 8.604 0 01-1.308-1.394c-.78-1.033-1.331-2.251-1.71-3.537a17.383 17.383 0 01-.66-4.022c-.07-1.373-.048-2.765.18-4.114.214-1.35.583-2.67 1.15-3.888a10.645 10.645 0 012.316-3.232c1.93-1.851 4.462-3 7.136-3.209a17.165 17.165 0 014.004.184c1.31.19 2.58.557 3.754 1.11a9.65 9.65 0 013.218 2.312c.462.496.848 1.017 1.245 1.618.352.544.678 1.158.939 1.778.525 1.247.85 2.608.978 3.975.108 1.144.138 2.32.14 3.502-1.331.112-2.662.13-3.993.126zM49.645 27.266h.013c1.256 0 2.511.16 3.767.13l3.768.01c1.256-.026 2.51.02 3.767-.041 1.256-.04 2.51-.11 3.767-.253l.08-.002a.762.762 0 00.678-.748l.048-3.756a.793.793 0 00-.692-.795l-.115-.014a60.856 60.856 0 00-3.767-.355l-1.884-.13-1.883-.068c-1.256-.041-2.51-.11-3.767-.086-1.256.02-2.51.114-3.767.338l-.202.036c-.51.09-1.01.536-1.014 1.076l-.138 3.757v.004c0 .625.718.897 1.341.897zm3.78-3.865c1.257-.065 2.512-.065 3.768-.078l1.883-.02 1.884.019c.972 0 1.944.034 2.915.068l-.117 2.028c-.305.025-.61.063-.915.076-.628.044-1.256.047-1.883.054-1.257.027-2.511-.028-3.767-.037a140.513 140.513 0 01-3.768-.101c-.88-.022-1.759-.073-2.639-.123l-.013-1.703c.257-.026.513-.052.77-.07a31.436 31.436 0 011.883-.113z" fill="#000"/><path d="M64.302 41.261c-.516-1.236-.5-2.545-1.248-3.681-.183-.283-.454-.548-.686-.793-.12-.129-.257-.228-.404-.362-.11-.095-.225-.183-.375-.298a6.607 6.607 0 00-1.74-.986 7.607 7.607 0 00-1.917-.445c-.161-.012-.324-.03-.484-.034l-.255-.01-.217-.001a8.7 8.7 0 00-.979.058c-1.292.137-2.685.677-3.695 1.7l-.007.006-.007.008-.2.218c-.077.093-.162.19-.232.28a7.504 7.504 0 00-1.02 1.745c-.172.41-.232.826-.339 1.245a5.73 5.73 0 00-.129 1.263v.002c0 .05-.09.107-.09.16.006.55.415.994.964.989 2.012-.016 4.005-.011 6.017-.06 2.012-.028 4.013-.088 6.025-.14l.05-.002c.022 0 .155-.002.176-.004.423-.048.792-.43.792-.855v-.003zm-7.063-.906l-4.917-.034c.063-.31.147-.613.255-.905.11-.325.277-.622.454-.907.089-.142.186-.279.288-.41l.146-.183.183-.203c.684-.666 1.603-1.049 2.61-1.111a6.63 6.63 0 01.753-.017l.217.007.177.013c.127.007.251.025.376.037.498.066.966.199 1.41.357a4.59 4.59 0 011.204.681c.07.05.196.147.307.237.054.05.163.138.234.213.16.156.309.325.438.511.377.513.65 1.139.861 1.827-.66-.026-1.319-.046-1.978-.069-1.005-.042-2.012-.03-3.018-.044zm-39.273-5.537c.047.345.093.69.173 1.035l.091.31c.086.369.451.432.82.432h.003c2.627.519 5.254.393 7.88.46 1.422.014 3-.163 4.378-1.048.043-.029.082-.039.123-.069l.06-.035.016-.006.04-.025.006-.004.024-.02.213-.19c.2-.183.328-.348.46-.537.258-.37.442-.774.555-1.172.196-.808.259-1.54.281-2.26 0-.218.006-.323-.008-.536-.01-.196-.026-.38-.045-.567a5.698 5.698 0 00-.268-1.139c-.26-.768-.843-1.483-1.544-1.943a2.904 2.904 0 00-.267-.165l-.135-.077-.016-.01-.091-.034-.029-.013-.056-.025a7.87 7.87 0 00-.512-.207c-.345-.12-.694-.22-1.042-.306a14.23 14.23 0 00-2.092-.357 27.043 27.043 0 00-1.037-.085c-.33-.027-.657-.03-.985-.041-.33-.016-.657-.008-.986.001-.328.009-.657.01-.985.037-.657.041-1.314.085-1.97.188-.656.084-1.314.19-1.97.357l-.059.015a1.015 1.015 0 00-.742.79c-.135.69-.216 1.38-.275 2.07-.074.69-.107 1.38-.123 2.07-.028.69-.012 1.38.02 2.07l.095 1.036zm1.755-3.105c.034-1.114.059-2.23.105-3.344 1.056-.023 2.11-.024 3.165-.036.657-.003 1.314.03 1.97.041.662.018 1.315.03 1.935.077.627.053 1.247.12 1.848.225a9.56 9.56 0 011.305.326l.043.014.081.039c.057.025.112.053.163.085.42.236.708.567.888 1a3 3 0 01.193.717c.015.132.031.266.035.385.01.093.008.347.005.433-.016.568-.141 1.105-.38 1.485-.119.19-.253.342-.4.467-.067.062-.172.123-.212.151-.003.01-.116.077-.172.115l-.135.076c-.88.48-2.006.767-3.225.885-2.4.229-4.8.311-7.2.294a52.18 52.18 0 01-.017-1.365c.003-.69-.022-1.38.005-2.07zM33.738 44.59a4.688 4.688 0 00-1.45-2.24 6.033 6.033 0 00-1.1-.736c-.405-.2-.81-.329-1.208-.439-.795-.227-1.577-.283-2.339-.3-.195-.005-.369.01-.58.015l-.534.034-1.068.084c-.712.05-1.424.105-2.136.13l-4.273.165a.598.598 0 00-.487.294l-.276.473c-.486.834-.416 1.668-.517 2.502-.06.834-.055 1.668-.07 2.502-.01.834.004 1.669.011 2.502.02.834.054 1.668.115 2.502l.012.102c.046.628.586 1 1.213 1h.002l8.592.076c.77-.028 1.563-.059 2.375-.286a6.338 6.338 0 001.227-.45l.082-.036.03-.013.056-.034.113-.07c.064-.038.176-.114.278-.186a4.98 4.98 0 00.548-.443c.683-.621 1.126-1.471 1.364-2.286.237-.827.291-1.639.315-2.417a9.38 9.38 0 00-.042-1.203 5.99 5.99 0 00-.253-1.242zm-1.497 2.39c-.043.637-.175 1.247-.43 1.748-.241.511-.588.88-.973 1.196-.098.073-.21.16-.296.206-.044.027-.078.053-.172.1l-.118.062-.045.023-.005.003-.005.002-.011.005a5.489 5.489 0 01-.767.31c-.561.18-1.196.347-1.86.437-.653.108-1.392.14-2.097.175-.712.037-1.424.016-2.136.027a48.206 48.206 0 01-3.328-.106l-.168-8.31 7.729.192c.67.042 1.326.122 1.935.248.302.068.593.151.847.26.278.121.518.25.74.41.872.626 1.237 1.735 1.16 3.012z" fill="#000"/></svg>