<svg width="80" height="80" fill="none" xmlns="http://www.w3.org/2000/svg"><path d="M77.1 24.496c-.355-4.029-.351-8.264-1.908-11.883-2.35-5.46-7.89-7.643-13.282-8.637-14.156-2.607-32.802-5.66-46.428-1.212-6.095 1.99-8.428 3.68-11.976 9.517-2.13 3.504-1.144 8.772-1.003 12.518.046 1.213.014 3.49-.287 6.223 0 0 57.438 45.398 57.44 45.398h-.002l.002-.075c5.326-.308 11.002-1.072 14.298-5.824 3.274-4.718 3.09-10.973 3.753-16.474.56-4.643 1.008-9.308 1.098-13.987.071-3.625-1.143-9.161-1.706-15.564z" fill="#EE3D8C"/><path d="M58.695 71.33c-4.34-17.135-8.297-35.826-24.861-44.321-9.292-4.766-22.346-2.55-31.618 4.012C1.186 37.266.439 45.878.682 49.534l34.553 29.032c7.615.238 15.096-1.748 22.692-2.128.587-.029 1.128-.019 1.727-.019h.003c-.23-1.565-.555-3.481-.962-5.089z" fill="#F26A09"/><path d="M.419 49.535c.383 5.778.666 11.636 2.766 17.09 1.843 4.787 5.037 8.779 9.51 11.263 5.925 3.292 15.879.472 22.43.678-.527-6.18.504-11.14-6.031-20.476C20.038 45.152.332 48.226.419 49.535z" fill="#FEE000"/><path d="M56.787 18.366c-1.357-.17-3.914-.159-5.522 2.014-.875 1.184-1.86 5.967 3.463 7.705 1.796.587 4.585-.84 5.354-2.564 1.874-4.196-1.396-6.918-3.295-7.155z" fill="#fff"/><path d="M43.133 73.01c-4.904-.029-9.794-.308-14.7-.337-4.982-.03-11.31.58-15.218-3.228-4.153-4.048-3.304-11.011-3.862-16.362-.63-6.04-1.185-11.805-.587-17.869.318-3.211.422-6.41.505-9.634.068-2.636-.057-5.365 1.006-7.833 2.15-4.992 6.57-6.573 11.522-7.063 5.091-.53 10.191-.786 15.306-.817 7.054.044 14.11-.552 21.162-.224 2.327.108 4.458.265 6.584 1.418 3.537 1.921 6.095 5.745 6.304 9.835.232 9.176-.948 18.357-.06 27.493.418 4.304.255 8.67.05 12.984-.191 4.01-2.789 7.584-6.182 9.523-3.352 1.916-7.571 1.59-11.304 1.87-1.693.105-3.423-.166-5.13-.108-1.8.095-3.592.317-5.396.352zm.005-2.594c5.05-.129 10.122-.61 15.103-1.38 2.924-.453 5.23-.682 7.386-2.98 2.117-2.256 2.227-4.961 2.329-7.903.238-6.907.067-13.782-.102-20.688-.077-3.28-.03-6.556-.028-9.836 0-3.13.476-6.907-.956-9.793-2.134-4.301-5.988-4.652-10.134-4.727-6.706-.123-13.334-.076-20.03-.57-3.92-.289-7.73-.188-11.637.42-3.253.505-7.658.575-10.273 2.795-1.829 1.553-2.429 3.414-2.931 5.597-.41 3.755-.369 7.62-.501 11.395-.147 4.18-.287 8.373-.027 12.55.275 4.431.9 8.875 1.009 13.312.085 3.484.194 7.211 3.632 9.074 1.925 1.043 4.074.845 6.173.956 7.021.375 13.937 1.667 20.987 1.778z" fill="#000"/><path d="M55.577 41.153a17.387 17.387 0 01-1.064 5.04c-.726 1.954-1.913 3.596-3.116 5.27-1.211 1.687-2.687 3.111-4.561 4.009-1.886.903-3.904 1.25-5.97 1.366-6.51.216-12.502-3.96-15.236-9.88-1.29-2.795-1.873-5.902-1.26-8.952.584-2.915 2.086-5.673 4.014-7.896 1.329-1.532 2.85-2.873 4.822-3.392.936-.31 1.816-.808 2.755-1.127a16.115 16.115 0 013.361-.767c2.871-.323 5.629.26 8.129 1.768 1.306.764 2.388 2.046 3.334 3.207 1.014 1.245 1.874 2.585 2.68 3.974 1.08 2.334 2.153 4.731 2.112 7.38zm-2.993-.087c-.178-3.78-1.52-7.24-4.546-9.61-2.252-1.766-6.295-2.863-8.042-2.863-1.746 0-3.536.23-5.205 1.048-1.111.545-2.253 1.146-3.237 1.906-2.764 2.135-4.478 5.4-4.702 8.902-.227 3.547 1.262 7.135 3.814 9.544 2.577 2.434 6.635 3.812 10.597 3.652.967-.039 1.951-.315 2.864-.629a12.589 12.589 0 004.753-2.974c2.305-2.277 3.482-5.88 3.706-9.084l-.002.108zm11.447-19.697c-.267-2.768-2.443-5.072-5.094-5.648-1.118-.198-2.139-.245-3.24.09-1.316.399-2.563 1.039-3.477 2.102-1.31 1.523-1.655 3.695-1.109 5.612.629 2.204 2.41 3.763 4.495 4.504.6.212 1.15.39 1.801.388 1.431-.004 2.985-.572 4.18-1.353 1.846-1.205 2.654-3.521 2.444-5.695zm-2.785 2.83c.076-.193-.096.106-.108.123-.14.183-.302.36-.46.526a5.416 5.416 0 01-1.419 1.042c-.759.396-1.598.603-2.438.413-1.129-.329-2.261-.93-2.99-1.875-1.02-1.321-1.073-3.401-.27-4.866.517-.738 1.251-1.478 2.137-1.721.974-.267 1.975-.21 2.958-.044 1.498.625 2.948 2.039 3.18 3.722.147 1.069-.221 1.752-.59 2.68z" fill="#000"/></svg>