<svg width="80" height="80" fill="none" xmlns="http://www.w3.org/2000/svg"><path d="M6.924 65.528c3.751 12.88 23.31 8.421 33.514 8.421 12.715 0 22.635.276 27.623-3.335 6.58-4.764 6.01-13.777 6.01-23.344 0-21.155 3.604-26.654-2.75-35.896C65.858 3.43 54.738 4.921 42.555 4.79c-12.701-.137-21.384-.812-25.98 1.185C5.392 10.828 5.208 20.673 5.208 31.795c0 11.794-2.047 20.813 1.715 33.733z" fill="#2FACDF"/><path d="M63.85 20.934c-2.142 10.419-6.02 32.35-7.56 37.574-1.02 3.456-4.113 4.397-7.222 2.267-6.296-4.315-18.18-12.43-18.18-12.43l-4.466-4.358s-11.361-1.34-14.479-2.516c-3.503-1.32-2.579-5.524-.004-6.897 9.95-5.3 36.643-14.978 44.81-18.118 3.99-1.534 8.048-.135 7.1 4.478z" fill="#fff"/><path d="M54.77 25.58L26.421 43.987l4.406 15.378 1.242-10.83s22.824-20.979 23.76-21.871c.935-.893-1.06-1.084-1.06-1.084z" fill="#C5E5EB"/><path d="M32.21 48.78L30.9 60.644c.985.604 6.884-7.146 6.884-7.146L32.21 48.78z" fill="#A9C2CC"/><path d="M78.364 60.794c-.181-5.915-.33-11.836-.53-17.751-.12-3.594-.211-7.19-.244-10.786-.04-4.553.345-9.08.41-13.629.053-3.789-.017-7.247-2.153-10.543-2.109-3.251-5.592-5.711-9.367-6.443-3.025-.587-6.327-.278-9.38-.336-4.304-.083-8.61-.15-12.911-.36C40.042.742 35.944.08 31.786.12c-4.25.042-8.493.413-12.733.687-4.178.27-8.25.337-11.745 3.035-3.186 2.46-5.03 6.363-5.246 10.407-.423 7.909-.461 15.828-.502 23.746a341.41 341.41 0 01-.093 6.47c-.1 4.144.149 8.288.002 12.425-.115 3.226-.453 6.67.036 9.879.603 3.955 3.214 7.41 6.382 9.639 3.465 2.436 7.205 2.613 11.266 2.789a352.3 352.3 0 0013.083.3c8.474.048 17.094.51 25.55-.115 2.026-.15 4.051-.424 6.082-.491 1.385-.046 2.702-.138 4.05-.54 3.638-1.087 6.924-3.57 8.77-6.987 1.752-3.24 1.786-6.957 1.676-10.57zm-2.788-6.504c-.098 3.665-.42 7.326-.67 10.983-.22 3.197-1.747 6.05-4.188 8.054-2.85 2.34-6.022 2.622-9.512 2.752-4.15.154-8.287.067-12.436.302-4.435.252-8.897-.042-13.334-.121-4.392-.08-8.784-.035-13.176-.094-3.804-.052-8.186.383-11.657-1.468-3.288-1.754-6.177-5.07-6.603-8.94-.376-3.428-.14-7.016-.047-10.456.107-3.968.308-7.932.422-11.899.182-6.313.087-12.646.222-18.987.082-3.85-.225-8.053.49-11.848.7-3.726 3.176-6.835 6.66-8.174 1.854-.712 3.765-.751 5.716-.868 2.254-.136 4.506-.262 6.76-.372 4.352-.212 8.733-.56 13.088-.324 8.607.466 17.213.924 25.827 1.245 6.203.23 11.798 4.678 11.831 11.375.043 8.729.136 17.428.463 26.15.16 4.234.256 8.454.144 12.69z" fill="#000"/><path d="M64.524 14.915c-1.208-.355-2.306.03-3.457.38-1.62.492-3.216 1.016-4.786 1.657-3.67 1.498-7.27 3.157-10.932 4.674-2.96 1.227-6.06 2.057-9.061 3.174-4.08 1.52-8.119 3.146-12.173 4.735-3.812 1.493-7.838 2.838-11.447 4.799-1.968 1.07-4.493 2.416-3.377 5.236.665 1.68 2.27 2.216 3.8 2.788 2.053.77 4.108 1.548 6.195 2.216 1.071.342 3.548.636 4.266 1.485.395.467.38 1.266.499 1.877a95.29 95.29 0 00.714 3.348c.831 3.571 2.258 6.959 3.008 10.537.498 2.373 3.28 3.734 5.135 1.917 1.21-1.186 2.424-2.37 3.617-3.576.685-.69 1.335-1.416 1.992-2.134.254-.277.51-.55.762-.83.66-.734.593-.66 1.368-.06 3.444 2.664 7.05 5.1 10.498 7.757 2.785 2.146 6.319 1.127 7.209-2.32 1.093-4.235 2.031-8.51 2.908-12.8 1.768-8.645 3.726-17.248 5.252-25.95.494-2.823 1.786-7.802-1.99-8.91zm-36.61 39.858c-.438-1.833-.841-3.675-1.25-5.516-.169-.764-.341-1.528-.506-2.293-.075-.35-.367-.726-.219-1.05.219-.477.909-.495 1.359-.75 3.233-1.835 6.283-3.991 9.377-6.054 4.063-2.71 8.264-5.171 12.345-7.841a356.112 356.112 0 01-4.763 4.773c-1.374 1.345-2.947 2.382-4.402 3.618-1.863 1.583-3.643 3.257-5.47 4.881l-3.019 2.683c-1.07.95-1.038 2.952-1 4.287.089 3.047-.448 6.052-.887 9.065-.596-1.917-1.098-3.85-1.565-5.803zm7.282 3.395c-1.08 1.114-2.18 2.207-3.254 3.324.483-3.496.724-7.017 1.126-10.524 1.666 1.409 3.364 2.78 5.048 4.167-.973 1.011-1.943 2.026-2.92 3.033zm29.84-39.757c-.49 5.717-1.89 11.533-3.138 17.111-1.498 6.7-2.758 13.453-4.308 20.14a512.478 512.478 0 01-1.115 4.68c-.248 1.025-.3 2.194-1.072 2.942-.981.949-2.302.147-3.198-.531-1.407-1.065-2.884-2.005-4.355-2.973a98.238 98.238 0 01-3.873-2.711c-1.266-.923-2.223-2.175-3.419-3.172-2.185-1.82-4.486-3.526-6.812-5.154 1.514-1.382 3.025-2.766 4.554-4.13.79-.705 1.614-1.365 2.386-2.09 1.497-1.405 9.206-9.13 11.75-11.41 1.348-1.209 2.422-2.392 3.643-3.733 1.374-1.509.103-3.493-2.105-2.085-2.607 1.664-8.174 4.532-12.231 7.197-3.439 2.257-6.88 4.509-10.322 6.76a695.829 695.829 0 01-7.044 4.533c-.267.17-1.466-.593-1.79-.73a86.653 86.653 0 00-3.419-1.344c-2.155-.807-4.736-1.185-6.752-1.954-1.373-.523-1.733-1.695-.431-2.498 2.355-1.452 5.238-2.34 7.78-3.397 6.073-2.526 12.17-5.03 18.336-7.31 2.856-1.056 5.798-1.782 8.61-2.965 2.874-1.21 5.676-2.593 8.551-3.798 2.297-.962 4.59-1.834 6.963-2.578.881-.276 2.954-.46 2.812 1.2z" fill="#000"/></svg>